<svg xmlns="http://www.w3.org/2000/svg" xmlns:xlink="http://www.w3.org/1999/xlink" width="100%" height="100%" viewBox="0 0 340.000000 250.000000" preserveAspectRatio="xMidYMid meet" color-interpolation-filters="sRGB" style="margin: auto;">
  <g data-v-2cb57da0="" class="iconmbgsvg" transform="translate(95,50)">
    <g fill="#426755" hollow-target="textFill" mask="url(#df57af96-7dd9-4804-973c-5b2a6f7fb961)">
      <g>
        <g>
          <rect fill="#426755" fill-opacity="0" stroke-width="2" x="0" y="0" width="150" height="150" class="image-rect"></rect>
          <svg x="0" y="0" width="150" height="150" filtersec="colorsb3288746728" class="image-svg-svg primary" style="overflow: visible;">
            <svg fill="#426755" xmlns="http://www.w3.org/2000/svg" xmlns:xlink="http://www.w3.org/1999/xlink" version="1.1" x="0px" y="0px" viewBox="5 5 90 90" enable-background="new 0 0 100 100" xml:space="preserve">
              <path d="M75.921,5H24.305C13.752,5,5,13.752,5,24.305v51.616C5,86.472,13.752,95,24.305,95h51.616C86.472,95,95,86.472,95,75.921  V24.305C95,13.752,86.472,5,75.921,5z"></path>
            </svg>
          </svg>
        </g>
      </g>
      <g transform="translate(13.289718627929688,43.65875053405762)">
        <g data-gra="path-name" fill-rule="" class="tp-name" transform="translate(0,0)">
          <g transform="scale(1)">
            <g>
            <path d="M2.54-1.78L2.54-1.78 2.54-45.2Q2.79-46.97 5.08-47.23L5.08-47.23 33.52-47.23Q35.8-46.97 36.05-44.94L36.05-44.94 36.05-22.6Q35.8-20.06 33.52-20.06L33.52-20.06 19.8-20.06Q16-19.8 15.49-17.52L15.49-17.52Q15.23-15.49 18.54-13.2L18.54-13.2 34.28-1.02Q34.79-0.51 34.79-0.25L34.79-0.25Q34.79 0 34.02 0L34.02 0Q31.48 0 30.47-1.02L30.47-1.02 16.5-11.68Q11.68-15.23 8.38-14.22L8.38-14.22Q5.08-13.2 5.08-8.38L5.08-8.38 5.08-1.52Q4.82 0 3.81 0L3.81 0Q2.54 0 2.54-1.78ZM16-22.6L16-22.6 25.64-22.6Q32.75-22.34 33.77-28.95L33.77-28.95Q33.77-29.45 33.77-29.96L33.77-29.96 33.77-36.82Q33.52-44.69 24.63-44.94L24.63-44.94 15.49-44.94Q5.59-44.18 5.08-35.55L5.08-35.55 5.08-30.98Q5.33-22.85 16-22.6ZM51.8-2.03L51.8-2.03 40.12-46.21Q39.61-47.23 40.88-47.23L40.88-47.23Q42.15-46.97 42.66-45.96L42.66-45.96 49.77-18.54Q51.04-13.71 53.57-13.71L53.57-13.71Q56.37-13.96 57.64-18.79L57.64-18.79 64.49-45.45Q65-47.23 65.76-47.48L65.76-47.48Q65.76-47.23 66.02-47.48L66.02-47.48Q66.27-47.73 66.52-47.73L66.52-47.73Q67.29-47.73 67.79-46.97L67.79-46.97Q67.79-46.72 68.05-46.21L68.05-46.21Q68.05-45.7 68.3-45.45L68.3-45.45 75.41-18.28Q76.68-12.95 78.96-12.7L78.96-12.7Q81.25-12.95 82.77-18.28L82.77-18.28 90.14-45.7Q90.14-47.23 91.91-47.23L91.91-47.23Q92.93-47.23 92.68-46.46L92.68-46.46 81-2.03Q80.74-0.76 80.74-1.27L80.74-1.27Q80.49-0.51 80.49-0.25L80.49-0.25Q79.98 0 79.22 0L79.22 0Q78.96 0 78.71 0L78.71 0Q78.46 0 78.46 0L78.46 0Q77.95 0 77.19-1.52L77.19-1.52Q77.19-1.78 77.19-2.03L77.19-2.03 71.09-25.9Q69.32-30.47 66.02-30.72L66.02-30.72Q63.22-30.72 61.95-25.9L61.95-25.9 55.61-2.03Q55.1-0.25 54.34 0L54.34 0Q54.08 0 53.83 0L53.83 0Q53.57 0 53.57 0L53.57 0Q52.81 0 52.56-0.25L52.56-0.25Q51.8-1.02 51.8-2.03ZM99.79-44.94L99.79-44.94 98.01-44.94Q95.98-44.94 95.98-45.96L95.98-45.96Q95.98-46.97 98.26-47.23L98.26-47.23 123.4-47.23Q126.19-46.97 125.94-45.96L125.94-45.96Q125.94-44.69 123.4-44.94L123.4-44.94 121.88-44.94Q113.24-43.42 112.23-33.01L112.23-33.01 112.23-1.78Q111.97 0 110.96 0L110.96 0Q109.69 0 109.94-2.03L109.94-2.03 109.94-33.01Q108.67-43.16 99.79-44.94Z" transform="translate(-2.5399999618530273, 47.72999954223633)"></path>
            </g>
          </g>
        </g>
      </g>
    </g>
  </g>
  <mask id="df57af96-7dd9-4804-973c-5b2a6f7fb961">
    <g fill="white">
      <g>
      <rect fill-opacity="0" stroke-width="2" x="0" y="0" width="150" height="150" class="image-rect"></rect>
        <svg x="0" y="0" width="150" height="150" filtersec="colorsb3288746728" class="image-svg-svg primary" style="overflow: visible;">
          <svg xmlns="http://www.w3.org/2000/svg" xmlns:xlink="http://www.w3.org/1999/xlink" version="1.1" x="0px" y="0px" viewBox="5 5 90 90" enable-background="new 0 0 100 100" xml:space="preserve">
            <path d="M75.921,5H24.305C13.752,5,5,13.752,5,24.305v51.616C5,86.472,13.752,95,24.305,95h51.616C86.472,95,95,86.472,95,75.921  V24.305C95,13.752,86.472,5,75.921,5z"></path>
          </svg>
        </svg>
      </g>
    </g>
    <g transform="translate(13.289718627929688,43.65875053405762)" fill="black">
      <g data-gra="path-name" fill-rule="" class="tp-name" transform="translate(0,0)">
        <g transform="scale(1)">
          <g>
          <path d="M2.54-1.78L2.54-1.78 2.54-45.2Q2.79-46.97 5.08-47.23L5.08-47.23 33.52-47.23Q35.8-46.97 36.05-44.94L36.05-44.94 36.05-22.6Q35.8-20.06 33.52-20.06L33.52-20.06 19.8-20.06Q16-19.8 15.49-17.52L15.49-17.52Q15.23-15.49 18.54-13.2L18.54-13.2 34.28-1.02Q34.79-0.51 34.79-0.25L34.79-0.25Q34.79 0 34.02 0L34.02 0Q31.48 0 30.47-1.02L30.47-1.02 16.5-11.68Q11.68-15.23 8.38-14.22L8.38-14.22Q5.08-13.2 5.08-8.38L5.08-8.38 5.08-1.52Q4.82 0 3.81 0L3.81 0Q2.54 0 2.54-1.78ZM16-22.6L16-22.6 25.64-22.6Q32.75-22.34 33.77-28.95L33.77-28.95Q33.77-29.45 33.77-29.96L33.77-29.96 33.77-36.82Q33.52-44.69 24.63-44.94L24.63-44.94 15.49-44.94Q5.59-44.18 5.08-35.55L5.08-35.55 5.08-30.98Q5.33-22.85 16-22.6ZM51.8-2.03L51.8-2.03 40.12-46.21Q39.61-47.23 40.88-47.23L40.88-47.23Q42.15-46.97 42.66-45.96L42.66-45.96 49.77-18.54Q51.04-13.71 53.57-13.71L53.57-13.71Q56.37-13.96 57.64-18.79L57.64-18.79 64.49-45.45Q65-47.23 65.76-47.48L65.76-47.48Q65.76-47.23 66.02-47.48L66.02-47.48Q66.27-47.73 66.52-47.73L66.52-47.73Q67.29-47.73 67.79-46.97L67.79-46.97Q67.79-46.72 68.05-46.21L68.05-46.21Q68.05-45.7 68.3-45.45L68.3-45.45 75.41-18.28Q76.68-12.95 78.96-12.7L78.96-12.7Q81.25-12.95 82.77-18.28L82.77-18.28 90.14-45.7Q90.14-47.23 91.91-47.23L91.91-47.23Q92.93-47.23 92.68-46.46L92.68-46.46 81-2.03Q80.74-0.76 80.74-1.27L80.74-1.27Q80.49-0.51 80.49-0.25L80.49-0.25Q79.98 0 79.22 0L79.22 0Q78.96 0 78.71 0L78.71 0Q78.46 0 78.46 0L78.46 0Q77.95 0 77.19-1.52L77.19-1.52Q77.19-1.78 77.19-2.03L77.19-2.03 71.09-25.9Q69.32-30.47 66.02-30.72L66.02-30.72Q63.22-30.72 61.95-25.9L61.95-25.9 55.61-2.03Q55.1-0.25 54.34 0L54.34 0Q54.08 0 53.83 0L53.83 0Q53.57 0 53.57 0L53.57 0Q52.81 0 52.56-0.25L52.56-0.25Q51.8-1.02 51.8-2.03ZM99.79-44.94L99.79-44.94 98.01-44.94Q95.98-44.94 95.98-45.96L95.98-45.96Q95.98-46.97 98.26-47.23L98.26-47.23 123.4-47.23Q126.19-46.97 125.94-45.96L125.94-45.96Q125.94-44.69 123.4-44.94L123.4-44.94 121.88-44.94Q113.24-43.42 112.23-33.01L112.23-33.01 112.23-1.78Q111.97 0 110.96 0L110.96 0Q109.69 0 109.94-2.03L109.94-2.03 109.94-33.01Q108.67-43.16 99.79-44.94Z" transform="translate(-2.5399999618530273, 47.72999954223633)"></path>
          </g>
        </g>
      </g>
    </g>
  </mask>
</svg>